<mxfile host="drawio-plugin" modified="2021-09-12T13:22:49.217Z" agent="5.0 (Macintosh; Intel Mac OS X 11_5_2) AppleWebKit/537.36 (KHTML, like Gecko) Chrome/89.0.4389.114 Safari/537.36" etag="ddkzevOC85iJiMZ-gjvU" version="14.7.4" type="embed"><diagram id="vuHFJAF8e50SX8sUMpVo" name="Page-1"><mxGraphModel dx="988" dy="1746" grid="1" gridSize="10" guides="1" tooltips="1" connect="1" arrows="1" fold="1" page="1" pageScale="1" pageWidth="1600" pageHeight="1200" math="0" shadow="0"><root><mxCell id="0"/><mxCell id="1" parent="0"/><mxCell id="zTFzOSdCKIdbmDikZPza-5" value="" style="rounded=1;arcSize=10;dashed=0;fillColor=none;gradientColor=none;strokeWidth=2;" parent="1" vertex="1"><mxGeometry x="90" y="80" width="690" height="620" as="geometry"/></mxCell><mxCell id="zTFzOSdCKIdbmDikZPza-19" value="Availability zone" style="outlineConnect=0;gradientColor=none;html=1;whiteSpace=wrap;fontSize=12;fontStyle=0;shape=mxgraph.aws4.group;grIcon=mxgraph.aws4.group_availability_zone;strokeColor=#545B64;fillColor=none;verticalAlign=top;align=left;spacingLeft=30;fontColor=#545B64;dashed=1;" parent="1" vertex="1"><mxGeometry x="110" y="130" width="270" height="500" as="geometry"/></mxCell><mxCell id="zTFzOSdCKIdbmDikZPza-21" value="Private subnet" style="points=[[0,0],[0.25,0],[0.5,0],[0.75,0],[1,0],[1,0.25],[1,0.5],[1,0.75],[1,1],[0.75,1],[0.5,1],[0.25,1],[0,1],[0,0.75],[0,0.5],[0,0.25]];outlineConnect=0;gradientColor=none;html=1;whiteSpace=wrap;fontSize=12;fontStyle=0;shape=mxgraph.aws4.group;grIcon=mxgraph.aws4.group_security_group;grStroke=0;strokeColor=#147EBA;fillColor=#E6F2F8;verticalAlign=top;align=left;spacingLeft=30;fontColor=#147EBA;dashed=0;" parent="1" vertex="1"><mxGeometry x="113" y="416" width="240" height="200" as="geometry"/></mxCell><mxCell id="zTFzOSdCKIdbmDikZPza-20" value="Availability zone" style="outlineConnect=0;gradientColor=none;html=1;whiteSpace=wrap;fontSize=12;fontStyle=0;shape=mxgraph.aws4.group;grIcon=mxgraph.aws4.group_availability_zone;strokeColor=#545B64;fillColor=none;verticalAlign=top;align=left;spacingLeft=30;fontColor=#545B64;dashed=1;" parent="1" vertex="1"><mxGeometry x="430" y="133" width="330" height="497" as="geometry"/></mxCell><mxCell id="zTFzOSdCKIdbmDikZPza-2" value="" style="outlineConnect=0;dashed=0;verticalLabelPosition=bottom;verticalAlign=top;align=center;html=1;shape=mxgraph.aws3.virtual_private_cloud;fillColor=#F58534;gradientColor=none;" parent="1" vertex="1"><mxGeometry x="100" y="50" width="79.5" height="54" as="geometry"/></mxCell><mxCell id="zTFzOSdCKIdbmDikZPza-47" style="edgeStyle=elbowEdgeStyle;rounded=0;orthogonalLoop=1;jettySize=auto;elbow=vertical;html=1;exitX=0.5;exitY=0;exitDx=0;exitDy=0;exitPerimeter=0;endArrow=none;endFill=0;strokeColor=#000000;" parent="1" source="zTFzOSdCKIdbmDikZPza-12" target="zTFzOSdCKIdbmDikZPza-46" edge="1"><mxGeometry relative="1" as="geometry"><Array as="points"/></mxGeometry></mxCell><mxCell id="zTFzOSdCKIdbmDikZPza-12" value="" style="outlineConnect=0;dashed=0;verticalLabelPosition=bottom;verticalAlign=top;align=center;html=1;shape=mxgraph.aws3.internet_gateway;fillColor=#F58534;gradientColor=none;" parent="1" vertex="1"><mxGeometry x="380.5" y="90" width="30" height="30" as="geometry"/></mxCell><mxCell id="zTFzOSdCKIdbmDikZPza-15" value="10.0.0.0/16" style="text;html=1;strokeColor=none;fillColor=none;align=center;verticalAlign=middle;whiteSpace=wrap;rounded=0;" parent="1" vertex="1"><mxGeometry x="190" y="90" width="80" height="20" as="geometry"/></mxCell><mxCell id="zTFzOSdCKIdbmDikZPza-16" value="private[0] 10.0.1.0/24" style="text;html=1;strokeColor=none;fillColor=none;align=center;verticalAlign=middle;whiteSpace=wrap;rounded=0;" parent="1" vertex="1"><mxGeometry x="118" y="445" width="120" height="20" as="geometry"/></mxCell><mxCell id="zTFzOSdCKIdbmDikZPza-23" value="Private subnet" style="points=[[0,0],[0.25,0],[0.5,0],[0.75,0],[1,0],[1,0.25],[1,0.5],[1,0.75],[1,1],[0.75,1],[0.5,1],[0.25,1],[0,1],[0,0.75],[0,0.5],[0,0.25]];outlineConnect=0;gradientColor=none;html=1;whiteSpace=wrap;fontSize=12;fontStyle=0;shape=mxgraph.aws4.group;grIcon=mxgraph.aws4.group_security_group;grStroke=0;strokeColor=#147EBA;fillColor=#E6F2F8;verticalAlign=top;align=left;spacingLeft=30;fontColor=#147EBA;dashed=0;" parent="1" vertex="1"><mxGeometry x="470" y="415" width="240" height="200" as="geometry"/></mxCell><mxCell id="zTFzOSdCKIdbmDikZPza-18" value="private[1] 10.0.3.0/24" style="text;html=1;strokeColor=none;fillColor=none;align=center;verticalAlign=middle;whiteSpace=wrap;rounded=0;" parent="1" vertex="1"><mxGeometry x="470" y="445" width="120" height="20" as="geometry"/></mxCell><mxCell id="zTFzOSdCKIdbmDikZPza-25" value="Public subnet" style="points=[[0,0],[0.25,0],[0.5,0],[0.75,0],[1,0],[1,0.25],[1,0.5],[1,0.75],[1,1],[0.75,1],[0.5,1],[0.25,1],[0,1],[0,0.75],[0,0.5],[0,0.25]];outlineConnect=0;gradientColor=none;html=1;whiteSpace=wrap;fontSize=12;fontStyle=0;shape=mxgraph.aws4.group;grIcon=mxgraph.aws4.group_security_group;grStroke=0;strokeColor=#248814;fillColor=#E9F3E6;verticalAlign=top;align=left;spacingLeft=30;fontColor=#248814;dashed=0;" parent="1" vertex="1"><mxGeometry x="113" y="183" width="250" height="200" as="geometry"/></mxCell><mxCell id="zTFzOSdCKIdbmDikZPza-14" value="public[0] 10.0.0.0/24" style="text;html=1;strokeColor=none;fillColor=none;align=center;verticalAlign=middle;whiteSpace=wrap;rounded=0;" parent="1" vertex="1"><mxGeometry x="113" y="210" width="130" height="20" as="geometry"/></mxCell><mxCell id="zTFzOSdCKIdbmDikZPza-26" value="Public subnet" style="points=[[0,0],[0.25,0],[0.5,0],[0.75,0],[1,0],[1,0.25],[1,0.5],[1,0.75],[1,1],[0.75,1],[0.5,1],[0.25,1],[0,1],[0,0.75],[0,0.5],[0,0.25]];outlineConnect=0;gradientColor=none;html=1;whiteSpace=wrap;fontSize=12;fontStyle=0;shape=mxgraph.aws4.group;grIcon=mxgraph.aws4.group_security_group;grStroke=0;strokeColor=#248814;fillColor=#E9F3E6;verticalAlign=top;align=left;spacingLeft=30;fontColor=#248814;dashed=0;" parent="1" vertex="1"><mxGeometry x="440" y="183" width="250" height="200" as="geometry"/></mxCell><mxCell id="zTFzOSdCKIdbmDikZPza-17" value="public[1] 10.0.2.0/24" style="text;html=1;strokeColor=none;fillColor=none;align=center;verticalAlign=middle;whiteSpace=wrap;rounded=0;" parent="1" vertex="1"><mxGeometry x="650" y="220" width="130" height="20" as="geometry"/></mxCell><mxCell id="zTFzOSdCKIdbmDikZPza-35" style="edgeStyle=elbowEdgeStyle;rounded=0;orthogonalLoop=1;jettySize=auto;html=1;endArrow=none;endFill=0;strokeColor=#000000;elbow=vertical;exitX=0.5;exitY=0;exitDx=0;exitDy=0;exitPerimeter=0;entryX=0.5;entryY=0;entryDx=0;entryDy=0;" parent="1" source="2" target="zTFzOSdCKIdbmDikZPza-21" edge="1"><mxGeometry relative="1" as="geometry"><Array as="points"><mxPoint x="310" y="400"/><mxPoint x="360" y="450"/><mxPoint x="470" y="210"/></Array></mxGeometry></mxCell><mxCell id="zTFzOSdCKIdbmDikZPza-13" value="" style="outlineConnect=0;dashed=0;verticalLabelPosition=bottom;verticalAlign=top;align=center;html=1;shape=mxgraph.aws3.application_load_balancer;fillColor=#F58534;gradientColor=none;" parent="1" vertex="1"><mxGeometry x="280" y="240" width="30" height="30" as="geometry"/></mxCell><mxCell id="zTFzOSdCKIdbmDikZPza-45" style="edgeStyle=elbowEdgeStyle;rounded=0;orthogonalLoop=1;jettySize=auto;elbow=vertical;html=1;exitX=1;exitY=0.5;exitDx=0;exitDy=0;exitPerimeter=0;endArrow=none;endFill=0;strokeColor=#000000;entryX=0.5;entryY=0;entryDx=0;entryDy=0;entryPerimeter=0;" parent="1" source="zTFzOSdCKIdbmDikZPza-1" target="2" edge="1"><mxGeometry relative="1" as="geometry"><Array as="points"><mxPoint x="400" y="315"/><mxPoint x="480" y="305"/></Array></mxGeometry></mxCell><mxCell id="zTFzOSdCKIdbmDikZPza-1" value="" style="outlineConnect=0;dashed=0;verticalLabelPosition=bottom;verticalAlign=top;align=center;html=1;shape=mxgraph.aws3.vpc_nat_gateway;fillColor=#F58534;gradientColor=none;" parent="1" vertex="1"><mxGeometry x="317" y="300" width="30" height="30" as="geometry"/></mxCell><mxCell id="zTFzOSdCKIdbmDikZPza-31" value="" style="points=[[0,0,0],[0.25,0,0],[0.5,0,0],[0.75,0,0],[1,0,0],[0,1,0],[0.25,1,0],[0.5,1,0],[0.75,1,0],[1,1,0],[0,0.25,0],[0,0.5,0],[0,0.75,0],[1,0.25,0],[1,0.5,0],[1,0.75,0]];outlineConnect=0;fontColor=#232F3E;gradientColor=#F78E04;gradientDirection=north;fillColor=#D05C17;strokeColor=#ffffff;dashed=0;verticalLabelPosition=bottom;verticalAlign=top;align=center;html=1;fontSize=12;fontStyle=0;aspect=fixed;shape=mxgraph.aws4.resourceIcon;resIcon=mxgraph.aws4.fargate;" parent="1" vertex="1"><mxGeometry x="287" y="496" width="30" height="30" as="geometry"/></mxCell><mxCell id="zTFzOSdCKIdbmDikZPza-39" style="edgeStyle=elbowEdgeStyle;rounded=0;orthogonalLoop=1;jettySize=auto;elbow=vertical;html=1;exitX=0.5;exitY=0;exitDx=0;exitDy=0;endArrow=none;endFill=0;strokeColor=#000000;" parent="1" source="zTFzOSdCKIdbmDikZPza-23" target="2" edge="1"><mxGeometry relative="1" as="geometry"><Array as="points"><mxPoint x="500" y="400"/><mxPoint x="460" y="470"/><mxPoint x="1180" y="687"/></Array><mxPoint x="1195" y="485" as="targetPoint"/></mxGeometry></mxCell><mxCell id="zTFzOSdCKIdbmDikZPza-36" value="" style="points=[[0,0,0],[0.25,0,0],[0.5,0,0],[0.75,0,0],[1,0,0],[0,1,0],[0.25,1,0],[0.5,1,0],[0.75,1,0],[1,1,0],[0,0.25,0],[0,0.5,0],[0,0.75,0],[1,0.25,0],[1,0.5,0],[1,0.75,0]];outlineConnect=0;fontColor=#232F3E;gradientColor=#F78E04;gradientDirection=north;fillColor=#D05C17;strokeColor=#ffffff;dashed=0;verticalLabelPosition=bottom;verticalAlign=top;align=center;html=1;fontSize=12;fontStyle=0;aspect=fixed;shape=mxgraph.aws4.resourceIcon;resIcon=mxgraph.aws4.fargate;" parent="1" vertex="1"><mxGeometry x="496" y="500" width="30" height="30" as="geometry"/></mxCell><mxCell id="zTFzOSdCKIdbmDikZPza-40" value="" style="outlineConnect=0;dashed=0;verticalLabelPosition=bottom;verticalAlign=top;align=center;html=1;shape=mxgraph.aws3.ecs;fillColor=#F58534;gradientColor=none;" parent="1" vertex="1"><mxGeometry x="167" y="490" width="30" height="30" as="geometry"/></mxCell><mxCell id="zTFzOSdCKIdbmDikZPza-42" value="kottage_api" style="text;html=1;strokeColor=none;align=center;verticalAlign=middle;whiteSpace=wrap;rounded=0;dashed=1;" parent="1" vertex="1"><mxGeometry x="167" y="520" width="76" height="20" as="geometry"/></mxCell><mxCell id="zTFzOSdCKIdbmDikZPza-43" value="az[0] ua-east-2a" style="text;html=1;strokeColor=none;fillColor=none;align=center;verticalAlign=middle;whiteSpace=wrap;rounded=0;dashed=1;" parent="1" vertex="1"><mxGeometry x="110" y="155" width="116" height="20" as="geometry"/></mxCell><mxCell id="zTFzOSdCKIdbmDikZPza-44" value="az[1] ua-east-2b" style="text;html=1;strokeColor=none;fillColor=none;align=center;verticalAlign=middle;whiteSpace=wrap;rounded=0;dashed=1;" parent="1" vertex="1"><mxGeometry x="430" y="163" width="96" height="20" as="geometry"/></mxCell><mxCell id="zTFzOSdCKIdbmDikZPza-46" value="" style="aspect=fixed;perimeter=ellipsePerimeter;html=1;align=center;shadow=0;dashed=0;spacingTop=3;image;image=img/lib/active_directory/internet_globe.svg;strokeWidth=3;fillColor=none;" parent="1" vertex="1"><mxGeometry x="370.5" y="-50" width="50" height="50" as="geometry"/></mxCell><mxCell id="2" value="" style="outlineConnect=0;dashed=0;verticalLabelPosition=bottom;verticalAlign=top;align=center;html=1;shape=mxgraph.aws3.router;fillColor=#F58536;gradientColor=none;" vertex="1" parent="1"><mxGeometry x="390.5" y="350" width="30" height="30" as="geometry"/></mxCell><mxCell id="4" style="edgeStyle=orthogonalEdgeStyle;rounded=0;orthogonalLoop=1;jettySize=auto;html=1;exitX=1;exitY=0.5;exitDx=0;exitDy=0;exitPerimeter=0;endArrow=none;endFill=0;" edge="1" parent="1" source="3" target="zTFzOSdCKIdbmDikZPza-12"><mxGeometry relative="1" as="geometry"><mxPoint x="735" y="350" as="targetPoint"/><Array as="points"><mxPoint x="285" y="185"/><mxPoint x="285" y="105"/></Array></mxGeometry></mxCell><mxCell id="3" value="" style="outlineConnect=0;dashed=0;verticalLabelPosition=bottom;verticalAlign=top;align=center;html=1;shape=mxgraph.aws3.router;fillColor=#F58536;gradientColor=none;" vertex="1" parent="1"><mxGeometry x="270" y="170" width="30" height="30" as="geometry"/></mxCell><mxCell id="14" style="edgeStyle=orthogonalEdgeStyle;rounded=0;orthogonalLoop=1;jettySize=auto;html=1;exitX=0.5;exitY=0;exitDx=0;exitDy=0;exitPerimeter=0;entryX=1;entryY=0.5;entryDx=0;entryDy=0;entryPerimeter=0;endArrow=none;endFill=0;" edge="1" parent="1" source="5" target="zTFzOSdCKIdbmDikZPza-12"><mxGeometry relative="1" as="geometry"/></mxCell><mxCell id="5" value="" style="outlineConnect=0;dashed=0;verticalLabelPosition=bottom;verticalAlign=top;align=center;html=1;shape=mxgraph.aws3.router;fillColor=#F58536;gradientColor=none;" vertex="1" parent="1"><mxGeometry x="570" y="170" width="30" height="30" as="geometry"/></mxCell><mxCell id="15" style="edgeStyle=orthogonalEdgeStyle;rounded=0;orthogonalLoop=1;jettySize=auto;html=1;exitX=0.25;exitY=0;exitDx=0;exitDy=0;entryX=0.5;entryY=1;entryDx=0;entryDy=0;entryPerimeter=0;endArrow=none;endFill=0;" edge="1" parent="1" source="7" target="3"><mxGeometry relative="1" as="geometry"/></mxCell><mxCell id="16" style="edgeStyle=orthogonalEdgeStyle;rounded=0;orthogonalLoop=1;jettySize=auto;html=1;exitX=0.75;exitY=0;exitDx=0;exitDy=0;endArrow=none;endFill=0;" edge="1" parent="1" source="7" target="5"><mxGeometry relative="1" as="geometry"><Array as="points"><mxPoint x="459" y="220"/><mxPoint x="585" y="220"/></Array></mxGeometry></mxCell><mxCell id="18" style="edgeStyle=orthogonalEdgeStyle;rounded=0;orthogonalLoop=1;jettySize=auto;html=1;exitX=0.5;exitY=1;exitDx=0;exitDy=0;entryX=0.5;entryY=0;entryDx=0;entryDy=0;entryPerimeter=0;endArrow=none;endFill=0;" edge="1" parent="1" source="7" target="2"><mxGeometry relative="1" as="geometry"><Array as="points"><mxPoint x="406" y="275"/><mxPoint x="406" y="320"/></Array></mxGeometry></mxCell><mxCell id="7" value="" style="rounded=0;whiteSpace=wrap;html=1;fillColor=none;strokeWidth=2;dashed=1;" vertex="1" parent="1"><mxGeometry x="277" y="235" width="243" height="40" as="geometry"/></mxCell><mxCell id="zTFzOSdCKIdbmDikZPza-41" value="" style="rounded=0;whiteSpace=wrap;html=1;fillColor=none;strokeWidth=3;dashed=1;" parent="1" vertex="1"><mxGeometry x="160" y="481" width="385" height="70" as="geometry"/></mxCell></root></mxGraphModel></diagram></mxfile>